# xmcd CD database file
# Copyright (C) 1995-1998 Ti Kan
#
# Track frame offsets:
#	150
#	12467
#	28212
#	41587
#	58307
#	74522
#	86047
#	99017
#	112130
#	126442
#
# Disc length: 1882 seconds
#
# Revision: 2
# Processed by: cddbd v1.4PL0 Copyright (c) Steve Scherf et al.
# Submitted via: CDex 1.30Release
#
DISCID=9107580a
DTITLE=Waylon Jennings - New Classic Waylon
DYEAR=1900
DGENRE=Country
TTITLE0=Working Without A Net
TTITLE1=Will The Wolfe Survive
TTITLE2=What You'll Do When I'm Gone
TTITLE3=Rose In Paradise
TTITLE4=Fallin' Out
TTITLE5=Rough And Roudy Days
TTITLE6=If Ole Hank Could Only See Us Now
TTITLE7=How Much Is  Worth To Live In L.A.
TTITLE8=Which way Do I Go (Now That I'm Gone)
TTITLE9=Trouble Man
EXTD=ID3G:   2
EXTT0=
EXTT1=
EXTT2=
EXTT3=
EXTT4=
EXTT5=
EXTT6=
EXTT7=
EXTT8=
EXTT9=
PLAYORDER=
